<?xml version="1.0" encoding="utf-8"?>
<!-- Generator: Adobe Illustrator 25.3.0, SVG Export Plug-In . SVG Version: 6.00 Build 0)  -->
<svg version="1.1"
	 id="Layer_1" inkscape:export-filename="G:\Users\suitedoalex\sites\facebook-logo-0.png" inkscape:export-xdpi="561.73712" inkscape:version="0.92.4 (5da689c313, 2019-01-14)" sodipodi:docname="facebook-logo-2021.svg" xmlns:cc="http://creativecommons.org/ns#" xmlns:dc="http://purl.org/dc/elements/1.1/" xmlns:inkscape="http://www.inkscape.org/namespaces/inkscape" xmlns:rdf="http://www.w3.org/1999/02/22-rdf-syntax-ns#" xmlns:sodipodi="http://sodipodi.sourceforge.net/DTD/sodipodi-0.dtd" xmlns:svg="http://www.w3.org/2000/svg"
	 xmlns="http://www.w3.org/2000/svg" xmlns:xlink="http://www.w3.org/1999/xlink" x="0px" y="0px" viewBox="0 0 700 700"
	 style="enable-background:new 0 0 700 700;" xml:space="preserve">
<style type="text/css">
	.st0{fill:#1778F2;}
	.st1{fill:#FFFFFF;}
</style>
<g>
	
		<sodipodi:namedview  bordercolor="#666666" borderopacity="1" gridtolerance="10" guidetolerance="10" id="namedview25" inkscape:current-layer="Layer_1" inkscape:cx="487.87842" inkscape:cy="229.03219" inkscape:pageopacity="0" inkscape:pageshadow="2" inkscape:window-height="837" inkscape:window-maximized="1" inkscape:window-width="1600" inkscape:window-x="-8" inkscape:window-y="-8" inkscape:zoom="0.62004283" objecttolerance="10" pagecolor="#ffffff" showgrid="false">
		</sodipodi:namedview>
	
		<g id="g538" transform="matrix(13.011698,0,0,-13.011698,350,100.22616)" inkscape:export-filename="G:\Users\suitedoalex\sites\facebook-logo-5.png" inkscape:export-xdpi="134.52238" inkscape:export-ydpi="134.52238">
		<path id="path540" inkscape:connector-curvature="0" class="st0" d="M-0.1,4.2c-12.8,0-23.1-10.4-23.1-23.1
			c0-11.4,8.3-20.9,19.1-22.8v0.1h0v16.3h-5.6v6.4h5.6v5.1C-4.1-8-0.3-4.5,5-4.5c2.5,0,5.2-0.4,5.2-0.4v-6h-3
			c-2.9,0-3.4-1.8-3.4-3.6v-4.3h6.4l-1.1-6.4H3.9v-16.3v-0.1C14.7-39.8,23-30.3,23-18.9C23-6.1,12.6,4.2-0.1,4.2"/>
	</g>
	
		<g id="g542" transform="matrix(13.011698,0,0,-13.011698,393.06352,418.91123)" inkscape:export-filename="G:\Users\suitedoalex\sites\facebook-logo-5.png" inkscape:export-xdpi="134.52238" inkscape:export-ydpi="134.52238">
		<path id="path544" inkscape:connector-curvature="0" class="st1" d="M0.5-0.8h5.3l1.1,6.4H0.5V10c0,1.8,0.5,3.6,3.4,3.6h3v6
			c0,0-2.7,0.4-5.2,0.4c-5.3,0-9.1-3.5-9.1-9.3V5.6H-13v-6.4h5.6v-16.4c1.3-0.2,2.6-0.3,4-0.3c1.4,0,2.7,0.1,4,0.3L0.5-0.8z"/>
	</g>
</g>
</svg>
